<svg width="300" height="300" viewBox="0 0 300 300" fill="none" xmlns="http://www.w3.org/2000/svg">
<g clip-path="url(#clip0)">
<path fill="#373534" d="M0 149.2C0 136.7 12.325 69.5375 18.575 46.075C27.5 12.4625 49.4625 0 81.1875 0C109.725 0 132.175 7.7125 147.888 14.475C173.513 25.5125 195.275 33.4625 225 36.3V25H300V175H225V165.875C194.325 173.188 164.35 191.7 145 258.4C138.963 279.15 132.85 300 109.588 300C66.4875 300 72.025 230.862 82.1375 189.825C68.3125 184 47.55 181.175 32.425 180.525C14.6 179.775 0 169.8 0 149.2ZM250 150H275V50H250V150ZM53.0625 133.725L35.6375 135.812C22.2 137.425 21.825 154.875 35 155.613C69.3625 157.538 98.25 168.275 111.5 175.063C106.125 196.913 100 218.35 100 244.237C100 275.55 109.762 290.063 120.987 251.413C145.9 165.675 184.2 146.863 225 137.5V62.5C193.488 61.6 166 49.4875 138.013 37.4375C116.375 28.125 77.4 18.75 57.8125 29.7625C41.625 40.2125 43.8875 51.4375 54.1625 50.525L63.8 50.125C73.9875 48.95 75.3 63.475 65.1625 64.3875C65.1625 64.3875 48.65 65.1625 43.35 65.825C31.15 67.3625 30.5 85.9125 43.85 85.2125C49.5625 84.9125 58.1375 84.7 58.1375 84.7C68.1 84.3125 69.075 98.175 59.9 99.35C59.9 99.35 50.975 99.4125 37.8875 100.587C24.8 101.762 24.4125 120.7 37.9375 120.125C48.7875 119.662 51.3 119.788 51.3 119.788C60.675 119.85 62.2375 132.637 53.0625 133.725Z"/>
</g>
<defs>
<clipPath id="clip0">
<rect width="300" height="300" fill="white" transform="matrix(-1 0 0 1 300 0)"/>
</clipPath>
</defs>
</svg>
