<svg width="300" height="300" viewBox="0 0 300 300" fill="none" xmlns="http://www.w3.org/2000/svg">
<g clip-path="url(#clip0)">
<path fill="#373534" d="M300 150.8C300 163.3 287.675 230.462 281.425 253.925C272.5 287.537 250.537 300 218.812 300C190.275 300 167.825 292.288 152.112 285.525C126.487 274.487 104.725 266.537 75 263.7V275H0L0 125H75L75 134.125C105.675 126.812 135.65 108.3 155 41.6C161.037 20.85 167.15 0 190.412 0C233.512 0 227.975 69.1375 217.863 110.175C231.688 116 252.45 118.825 267.575 119.475C285.4 120.225 300 130.2 300 150.8ZM50 150H25L25 250H50L50 150ZM246.937 166.275L264.363 164.188C277.8 162.575 278.175 145.125 265 144.387C230.638 142.462 201.75 131.725 188.5 124.937C193.875 103.087 200 81.65 200 55.7625C200 24.45 190.238 9.93749 179.013 48.5875C154.1 134.325 115.8 153.137 75 162.5V237.5C106.512 238.4 134 250.513 161.987 262.563C183.625 271.875 222.6 281.25 242.188 270.237C258.375 259.787 256.112 248.563 245.837 249.475L236.2 249.875C226.012 251.05 224.7 236.525 234.838 235.612C234.838 235.612 251.35 234.838 256.65 234.175C268.85 232.638 269.5 214.088 256.15 214.788C250.438 215.088 241.863 215.3 241.863 215.3C231.9 215.687 230.925 201.825 240.1 200.65C240.1 200.65 249.025 200.588 262.112 199.413C275.2 198.238 275.588 179.3 262.063 179.875C251.213 180.338 248.7 180.212 248.7 180.212C239.325 180.15 237.762 167.363 246.937 166.275Z" />
</g>
<defs>
<clipPath id="clip0">
<rect width="300" height="300" fill="white" transform="matrix(-1 0 0 1 300 0)"/>
</clipPath>
</defs>
</svg>
