<svg width="700" height="700" viewBox="0 0 700 700" fill="none" xmlns="http://www.w3.org/2000/svg">
<circle cx="350" cy="350" r="350" fill="#C4C4C4"/>
<g filter="url(#filter0_d)">
<path d="M354.102 536.25C318.402 536.25 287.352 529.8 260.952 516.9C234.552 503.7 214.302 485.1 200.202 461.1C186.102 437.1 179.052 409.2 179.052 377.4C179.052 333.3 187.302 294.15 203.802 259.95C220.602 225.75 243.252 199.35 271.752 180.75C300.252 161.85 331.902 152.4 366.702 152.4C399.102 152.4 423.702 160.8 440.502 177.6C457.302 194.1 465.702 216 465.702 243.3C465.702 261.6 462.402 276.3 455.802 287.4C449.502 298.5 440.352 304.05 428.352 304.05C419.952 304.05 413.352 302.1 408.552 298.2C403.752 294.3 401.352 288.6 401.352 281.1C401.352 278.4 401.952 273.45 403.152 266.25C404.952 257.25 405.852 250.05 405.852 244.65C405.852 217.35 391.302 203.7 362.202 203.7C342.402 203.7 323.502 210.15 305.502 223.05C287.502 235.95 272.952 255 261.852 280.2C250.752 305.1 245.202 334.8 245.202 369.3C245.202 405.3 255.252 433.2 275.352 453C295.452 472.5 325.152 482.25 364.452 482.25C383.952 482.25 403.602 479.85 423.402 475.05C443.502 469.95 465.702 462.3 490.002 452.1C494.502 450.3 498.252 449.4 501.252 449.4C506.052 449.4 509.652 451.2 512.052 454.8C514.452 458.4 515.652 463.05 515.652 468.75C515.652 487.05 505.752 500.55 485.952 509.25C464.652 518.55 442.452 525.45 419.352 529.95C396.552 534.15 374.802 536.25 354.102 536.25Z" fill="#373534"/>
</g>
<defs>
<filter id="filter0_d" x="177.052" y="150.4" width="356.6" height="403.85" filterUnits="userSpaceOnUse" color-interpolation-filters="sRGB">
<feFlood flood-opacity="0" result="BackgroundImageFix"/>
<feColorMatrix in="SourceAlpha" type="matrix" values="0 0 0 0 0 0 0 0 0 0 0 0 0 0 0 0 0 0 127 0"/>
<feOffset dx="8" dy="8"/>
<feGaussianBlur stdDeviation="5"/>
<feColorMatrix type="matrix" values="0 0 0 0 0 0 0 0 0 0 0 0 0 0 0 0 0 0 0.4 0"/>
<feBlend mode="normal" in2="BackgroundImageFix" result="effect1_dropShadow"/>
<feBlend mode="normal" in="SourceGraphic" in2="effect1_dropShadow" result="shape"/>
</filter>
</defs>
</svg>
